<svg xmlns="http://www.w3.org/2000/svg" width="1495.3" height="178.647" viewBox="0 0 1495.3 178.647">
  <path id="Path_2" data-name="Path 2" d="M132.916,0l6.251-39.809H62.839l88.5-95.081,5.264-35.2H28.952L22.7-130.613H90.8L1.974-36.19-3.619,0ZM203.98,4.277c21.385,0,38.164-8.883,49.35-23.688L251.685,0h48.034l17.108-106.267c6.909-44.744-23.359-68.1-67.774-68.1-44.744,0-69.748,22.043-76.328,57.575h48.692c2.961-14.147,10.2-21.056,25.662-21.056,13.489,0,23.03,7.238,20.4,24.017l-1.645,8.883-52.969,6.909c-33.229,4.277-52.969,19.082-57.246,46.06C150.353-18.095,172.725,4.277,203.98,4.277Zm20.727-36.519c-12.173,0-21.056-7.238-18.753-20.4,1.316-8.554,7.567-14.805,20.069-16.45L260.9-73.7l-2.632,16.45C254.975-42.112,243.131-32.242,224.707-32.242ZM379.008,0l16.121-101.332c2.961-19.74,12.5-31.913,30.6-31.913,17.766,0,25,11.844,21.714,31.584L431.319,0h51.324l16.45-104.622c7.238-43.757-14.476-69.748-50.008-69.748-22.7,0-38.493,11.515-47.7,25.333l1.974-21.056H354.662L327.684,0ZM561.6,0l16.121-101.99c2.961-19.082,11.186-31.255,28.294-31.255,16.121,0,23.359,11.844,20.4,30.926L610.295,0H661.29l16.45-101.99c3.29-19.082,11.186-31.255,28.294-31.255,15.792,0,23.03,11.844,20.069,30.926L709.982,0h50.995l17.108-106.6c6.909-41.783-14.147-67.774-49.679-67.774-25.991,0-42.77,14.476-52.311,28.623-6.909-17.437-22.7-28.623-44.415-28.623a56.131,56.131,0,0,0-47.705,25.333l1.974-21.056H537.257L510.279,0ZM838.95,4.277c21.385,0,38.164-8.883,49.35-23.688L886.655,0h48.034L951.8-106.267c6.909-44.744-23.359-68.1-67.774-68.1-44.744,0-69.748,22.043-76.328,57.575h48.692c2.961-14.147,10.2-21.056,25.662-21.056,13.489,0,23.03,7.238,20.4,24.017l-1.645,8.883-52.969,6.909c-33.229,4.277-52.969,19.082-57.246,46.06C785.323-18.095,807.7,4.277,838.95,4.277Zm20.727-36.519c-12.173,0-21.056-7.238-18.753-20.4,1.316-8.554,7.567-14.805,20.069-16.45L895.867-73.7l-2.632,16.45C889.945-42.112,878.1-32.242,859.677-32.242ZM1013.978,0,1030.1-101.332c2.961-19.74,12.5-31.913,30.6-31.913,17.766,0,25,11.844,21.714,31.584L1066.289,0h51.324l16.45-104.622c7.238-43.757-14.476-69.748-50.008-69.748-22.7,0-38.493,11.515-47.7,25.333l1.974-21.056H989.632L962.654,0Zm182.6,0,16.121-101.332c2.961-19.74,12.5-31.913,30.6-31.913,17.766,0,25,11.844,21.714,31.584L1248.884,0h51.324l16.45-104.622c7.238-43.757-14.476-69.748-50.008-69.748-22.7,0-38.493,11.515-47.7,25.333l1.974-21.056h-48.692L1145.249,0Zm181.279,4.277c21.385,0,38.164-8.883,49.35-23.688L1425.557,0h48.034L1490.7-106.267c6.909-44.744-23.359-68.1-67.774-68.1-44.744,0-69.748,22.043-76.328,57.575h48.692c2.961-14.147,10.2-21.056,25.662-21.056,13.489,0,23.03,7.238,20.4,24.017l-1.645,8.883-52.969,6.909c-33.229,4.277-52.969,19.082-57.246,46.06C1324.225-18.095,1346.6,4.277,1377.852,4.277Zm20.727-36.519c-12.173,0-21.056-7.238-18.753-20.4,1.316-8.554,7.567-14.805,20.069-16.45l34.874-4.606-2.632,16.45C1428.847-42.112,1417-32.242,1398.579-32.242Z" transform="translate(3.619 174.37)" fill="#2c2b29"/>
</svg>
